Coordinates
version=1
nRows=12
nColumns=24
inDegrees=yes

Units are S.I. units (second, meters, Newtons, ...)
Angles are in degrees.

endheader
time	pelvis_tilt	pelvis_list	pelvis_rotation	pelvis_tx	pelvis_ty	pelvis_tz	hip_flexion_r	hip_adduction_r	hip_rotation_r	knee_angle_r	ankle_angle_r	subtalar_angle_r	mtp_angle_r	hip_flexion_l	hip_adduction_l	hip_rotation_l	knee_angle_l	ankle_angle_l	subtalar_angle_l	mtp_angle_l	lumbar_extension	lumbar_bending	lumbar_rotation
      0.87566667	     -1.10937299	     -5.27457983	      8.25210235	     -0.41968822	      1.02578790	      0.28255388	     12.17923375	     11.80001797	     -3.56143650	    -15.80373581	      3.32707373	    -13.29995704	      4.96748754	     13.93693509	     -8.82852314	      2.01647722	    -66.40778416	     -7.59064097	      5.86189520	      5.61758236	     -0.30248103	      2.75963382	     -4.70948956
      0.87983333	     -1.09935756	     -5.21107125	      8.24143978	     -0.41481344	      1.02654326	      0.28261078	     11.65803979	     11.78370193	     -3.53776162	    -15.41315767	      3.42692089	    -13.17011237	      4.97589670	     14.59990093	     -8.71176651	      2.07458427	    -66.46902934	     -6.61728293	      5.42558797	      5.56807846	     -0.34821039	      2.70275237	     -4.63279158
      0.88400000	     -1.08652611	     -5.16403044	      8.22520700	     -0.41002523	      1.02723338	      0.28268573	     11.17080998	     11.77642853	     -3.57589340	    -15.08830886	      3.59102328	    -12.88802015	      5.20658120	     15.27253746	     -8.61810141	      2.11901841	    -66.52229835	     -5.53157956	      5.10199268	      1.80593341	     -0.45492319	      2.67703049	     -4.43396370
      0.88816667	     -1.03207482	     -5.10882228	      8.16740527	     -0.40520899	      1.02799586	      0.28282278	     10.60822656	     11.78764567	     -3.48357272	    -14.70670534	      3.66009763	    -12.77633408	      5.20751810	     15.86388420	     -8.53113545	      2.10779120	    -66.48783992	     -4.65275022	      4.59531697	      1.80580341	     -0.61316528	      2.65184592	     -4.31530116
      0.89233333	     -0.97194752	     -5.03658610	      8.10119854	     -0.40037273	      1.02875558	      0.28296017	     10.03409980	     11.78026294	     -3.39374250	    -14.32532750	      3.75037965	    -12.63896575	      5.20685755	     16.42508251	     -8.42169489	      2.08867191	    -66.38726000	     -3.83787494	      4.08028154	      1.77374124	     -0.75873047	      2.60197325	     -4.11940168
      0.89650000	     -0.91834467	     -4.95644737	      8.01649251	     -0.39556764	      1.02948015	      0.28312570	      9.47613004	     11.76467245	     -3.28507465	    -13.96589161	      3.84355344	    -12.50069547	      5.20404621	     16.97914302	     -8.30436290	      2.04613206	    -66.23389713	     -3.09010850	      3.52329323	      1.72146034	     -0.91292783	      2.54468948	     -3.93051547
      0.90066667	     -0.88803762	     -4.88215427	      7.90723075	     -0.39078759	      1.03012948	      0.28332158	      8.95395244	     11.75302402	     -3.15666566	    -13.62701925	      3.92776494	    -12.37296609	      5.20116729	     17.54516000	     -8.19044149	      1.98867621	    -66.03548066	     -2.37451804	      2.95450999	      1.67732756	     -1.05701866	      2.49271547	     -3.77394058
      0.90483333	     -0.81592332	     -4.78632216	      7.78148711	     -0.38596841	      1.03085164	      0.28353597	      8.36647122	     11.72685201	     -2.99524456	    -13.26066725	      4.02419147	    -12.23976524	      5.19197805	     18.03034717	     -8.06059904	      1.90987596	    -65.75569391	     -1.75727895	      2.34637522	      1.58490136	     -1.21543249	      2.41465242	     -3.51276677
      0.90900000	     -0.75809863	     -4.70004294	      7.63866964	     -0.38118731	      1.03149976	      0.28377601	      7.80705452	     11.70892472	     -2.81562155	    -12.91437803	      4.10775039	    -12.12148870	      5.17826403	     18.52272218	     -7.94136150	      1.82115032	    -65.43699434	     -1.16276934	      1.74695070	      1.47607329	     -1.37929455	      2.34957711	     -3.27400768
      0.91316667	     -0.73142025	     -4.61285570	      7.46663754	     -0.37643005	      1.03206473	      0.28406447	      7.29050180	     11.68777807	     -2.60121242	    -12.59045501	      4.19632466	    -12.03382280	      5.10605053	     19.03120213	     -7.82362303	      1.70980040	    -65.07189565	     -0.56526010	      1.19085448	      1.01390207	     -1.50215073	      2.28197013	     -2.89364509
      0.91733333	     -0.66637788	     -4.50830550	      7.29257183	     -0.37168737	      1.03269479	      0.28433956	      6.72978502	     11.64803182	     -2.39135595	    -12.26309387	      4.27527924	    -11.91191111	      5.09411313	     19.47283194	     -7.68498961	      1.59870764	    -64.63172899	     -0.08639588	      0.54116880	      0.93571927	     -1.70617088	      2.19772525	     -2.78919535
      0.92150000	     -0.59664353	     -4.39603305	      7.09526905	     -0.36694966	      1.03329100	      0.28465743	      6.16725334	     11.60104349	     -2.15194104	    -11.94981548	      4.36397469	    -11.80685415	      5.08114209	     19.88430208	     -7.54619281	      1.46760286	    -64.13550691	      0.39598085	     -0.06769491	      0.85991601	     -1.90948613	      2.11189097	     -2.57125075
